<svg xmlns="http://www.w3.org/2000/svg" xmlns:xlink="http://www.w3.org/1999/xlink" width="150" height="120"><defs><symbol id="icon-about" viewBox="0 0 50 50"><path d="M25 1C11.223 1 0 10.88 0 23.188c0 6.046 2.773 11.476 7.22 15.5-.673 2.074-2.173 3.71-3.69 4.968-.815.676-1.596 1.254-2.217 1.813-.31.276-.59.557-.813.905-.223.348-.422.844-.28 1.375l.124.406.344.22c1.29.74 2.894.87 4.625.75 1.73-.122 3.617-.52 5.468-1.032 3.595-.992 6.97-2.407 8.75-3.188 1.76.367 3.525.594 5.376.594 13.778 0 25-9.88 25-22.188C49.906 11.008 38.78 1 25 1zm0 2c12.82 0 22.906 9.215 22.906 20.313 0 11.09-10.176 20.187-23 20.187-1.828 0-3.55-.18-5.28-.563l-.345-.093L19 43c-1.672.738-5.207 2.18-8.75 3.156-1.773.49-3.54.864-5.063.97-1.02.07-1.648-.173-2.343-.345.496-.425 1.176-.932 1.97-1.593 1.74-1.445 3.83-3.457 4.56-6.437l.157-.625-.5-.375C4.626 34.016 2 28.875 2 23.187 2 12.098 12.176 3 25 3zm-1.188 9.813c-.3 0-.406.175-.406.374v2.626c0 .3.207.374.407.374h2.375c.3 0 .406-.175.406-.375v-2.624c0-.3-.207-.376-.407-.376zm.094 7.28c-.3 0-.406.208-.406.407v13.406c0 .3.207.407.406.407v.093h2.282c.3 0 .406-.207.406-.406V20.5c0-.3-.207-.406-.407-.406z"/></symbol><symbol id="icon-battle-net" viewBox="0 0 30 30"><path d="M24.822 13.457s2.14.11 2.14-1.15c0-1.642-2.85-3.123-2.85-3.123s.446-.946.724-1.475c.28-.53 1.064-2.592 1.133-3.064.087-.592-.048-.778-.048-.778-.193 1.27-2.262 4.924-2.427 5.05-2.018-.946-4.79-1.21-4.79-1.21S15.993 2 13.442 2c-2.53 0-2.518 4.89-2.518 4.89S10.21 5.502 9.31 5.502c-1.312 0-1.743 1.983-1.743 4.133-2.59 0-4.77.578-4.966.634-.193.057-.806.503-.528.446.566-.18 3.23-.593 5.56-.39.128 2.043 1.322 4.704 1.322 4.704s-2.56 3.706-2.56 6.353c0 .696.303 1.97 2.142 1.97 1.54 0 3.27-.925 3.594-1.113-.284.406-.495 1.177-.495 1.532 0 .29.172 1.113 1.36 1.113 1.524 0 3.228-1.168 3.228-1.168s1.608 2.67 2.984 3.895c.37.33.726.39.726.39s-1.366-1.314-3.166-4.7c1.673-1.033 3.415-3.468 3.415-3.468s.206.006 1.793.006c2.49 0 6.025-.522 6.025-2.498.002-2.042-3.178-3.885-3.178-3.885zm.28-1.227c0 .72-.688.712-.688.712l-.52.035s-.993-.52-1.592-.764c0 0 .93-1.432 1.148-1.832.164.095 1.65 1.025 1.65 1.85zM14.686 4.876c1.17 0 2.84 2.758 2.84 2.758S14.92 7.4 12.776 8.66c.058-1.985.728-3.784 1.91-3.784zm-4.635 2.236c.37 0 .735.45.885.834 0 .253.13 1.73.13 1.73l-2.146-.08c0-1.935.76-2.484 1.132-2.484zM9.83 20.55c-1.175 0-1.417-.654-1.417-1.242 0-1.33 1.064-3.194 1.064-3.194s1.19 2.505 3.274 3.563c-1.032.606-1.885.873-2.92.873zm3.81 2.623c-.82 0-.92-.532-.92-.657 0-.383.297-.833.297-.833s1.383-.934 1.47-1.034l1.024 1.904s-1.047.62-1.87.62zm2.568-1.04c-.5-.873-.87-1.787-.87-1.787s2.058.132 3.162-1.008c-.688.31-1.787.7-3.066.582 2.672-2.35 4.23-4.055 5.55-5.815-.115-.136-.717-.557-.865-.628-.797.957-3.89 4.262-6.755 5.898-3.626-1.978-4.39-7.793-4.466-9l1.98.19s-.744 1.32-.744 2.29.116 1.02.116 1.02-.025-1.69 1.02-3c.797 4.238 1.628 6.408 2.275 7.702.33-.136.945-.41.945-.41s-1.832-5.268-1.73-8.834c.83-.443 2.06-.9 3.446-.9 3.65 0 6.584 1.57 6.584 1.57l-1.15 1.6s-1.022-1.85-2.467-2.18c.76.566 1.614 1.316 2.06 2.396-3.026-1.182-6.676-1.807-7.847-1.944-.102.432-.088 1.05-.088 1.05s4.895.902 8.457 2.938c-.023 4.454-4.878 7.874-5.55 8.27zm4.636-3.327s1.52-1.992 1.496-4.632c0 0 2.455 1.52 2.455 3 0 1.657-3.95 1.632-3.95 1.632z"/></symbol><symbol id="icon-blockchain" viewBox="0 0 30 30"><path d="M22.365 1.998c-.357.076-.692.147-1.025.225-.038.01-.093.06-.094.093-.007.33-.004.665-.004 1.022.37-.072.713-.14 1.053-.21.027-.007.066-.045.066-.07.006-.35.005-.7.005-1.06zm-1.404.305l-.733.14c-.384.076-.385.077-.385.453v.694l1.12-.2V2.304zm-1.388.265c-.37.06-.716.118-1.064.18-.023.004-.055.05-.055.078-.004.32-.004.644-.004.983.357-.056.687-.106 1.015-.162.04-.004.102-.05.103-.082.007-.326.004-.654.004-.998zm-2.82.442l-1.113.138v1.016l1.112-.125V3.01zm6.994.06c-.347.074-.688.147-1.027.223-.028.007-.068.043-.068.066-.005.31-.005.62-.004.94.378-.074.735-.148 1.098-.22V3.07zm-8.392.11c-.395.04-.765.08-1.135.117V4.3c.36-.03.71-.063 1.06-.1.027-.002.072-.04.072-.063.005-.314.002-.63.002-.957zm-1.43.14c-.385.03-.753.062-1.12.092v.992l1.12-.08V3.32zm-1.418.114l-1.12.058v.994l1.12-.06v-.992zm-5.39.128v.97h1.12v-.97h-1.12zm1.433.004v.967h1.114v-.967H8.55zm12.41.07c-.345.06-.686.117-1.023.18-.035.007-.09.048-.09.075-.007.29-.005.58-.005.887.387-.06.75-.12 1.12-.177v-.963zm-1.396.257l-3.94.52v2.25l-2.468.107v-.9l1.045-.054V4.55l-4.25.22v2.164H7.118V8.04H8.22v.856h-1.1v1.092h1.417v3.502H9.62v.85H8.54v1.332h1.087v.848h-1.1v3.498H7.12v2.203h1.095v.846h1.75v2.174l2.863.12v-.837l1.1.09V23.22l1.705.126v2.24c1.32.174 2.623.344 3.94.52v-2.348l.657.045c.723.048 1.442.037 2.15-.143 1.308-.33 2.195-1.068 2.552-2.332.22-.78.253-1.574.168-2.373-.07-.658-.255-1.28-.606-1.86-.11-.18-.225-.286-.463-.265-.196.018-.394-.012-.594-.02l-.78-.035c0-.365-.006-.712.004-1.06.003-.108-.035-.16-.135-.188-.443-.124-.885-.26-1.332-.373-.257-.065-.524-.094-.793-.14v-.348c0-.402.002-.4.407-.533.704-.232 1.4-.478 1.996-.92.668-.495 1.146-1.12 1.43-1.875.255-.682.278-1.394.224-2.108-.042-.548-.173-1.08-.445-1.568-.214-.384-.518-.693-.908-.918-.827-.476-1.74-.603-2.69-.553l-.836.048-.015-.24-1.084.13V5.22c.365-.05.724-.1 1.084-.152V3.893zm4.182.447l-1.09.213v.99l1.09-.193V4.34zm-1.385.264l-1.104.195v.966l1.105-.176v-.986zm-13.817.17v.843H9.66v-.842H8.543zm12.414.072c-.378.06-.74.115-1.11.172v.95l1.11-.157v-.964zm-13.84 1.01v.86h1.12v-.86h-1.12zm1.43.003v.85h1.12v-.85h-1.12zm-5.682.917v.883l1.117.057v-.88l-1.117-.06zm1.414.1v.865h1.107v-.865H4.28zm1.415.05v.858h1.12v-.86h-1.12zm6.813.968v.87l-1.11.046v-.865c.374-.018.738-.033 1.11-.05zm11.238.072v1.02c-.353.042-.708.084-1.076.126v-.996l1.076-.15zm-19.47.01v.86H5.39v-.86H4.276zm5.712.01h1.094v.84H9.988v-.84zm-7.13 1.038c0 .255-.004.526.003.795.002.023.055.066.083.067.343.005.685.002 1.037.002v-.865H2.857zm2.837.084v.86h1.12v-.86h-1.12zm11.213.21c2.325-.056 2.262.892 2.28 1.582.03 1.267-.526 2.407-3.32 2.612-.096.007-2.36.097-2.393.097-.002-1.382-.002-2.75-.002-4.133.094-.006 3.075-.15 3.435-.157zm-14.04.813v.875H3.98v-.875H2.867zm2.83.066v.86h1.114v-.86H5.7zm1.42.013v.855H8.24v-.855H7.12zm2.267.008h1.103v.84H9.385v-.84zm14.355.354v1.024l-1.076.066v-.994l1.076-.096zm-19.457.694v.867h1.104v-.867H4.283zm2.836.037v.853h1.116v-.853H7.12zm3.855.008h1.097v.832h-1.097v-.832zm-8.108 1.03v.878h1.12v-.876h-1.12zm1.414.026v.86h1.113v-.86H4.28zm1.413.015v.855h1.12v-.855h-1.12zm.002 1.09v.86h1.123v-.86H5.695zm1.428.007v.854h1.115v-.854H7.123zm-2.84 1.09v.864h1.11v-.864h-1.11zm2.836 0v.852h1.12v-.852H7.12zm3.72.004h1.096v.848H10.84v-.848zm-3.717 1.088v.854h1.12v-.854h-1.12zm-1.432.004v.857h1.124v-.857H5.69zm7.783.756c.07 0 2.06.04 2.392.056 3.498.176 3.582.816 3.938 2.008.1.34.03.705-.065 1.05-.067.242-.258 1.148-2.502 1.146-.55 0-3.683-.123-3.763-.123v-4.136zm-7.78.336v.85h1.125v-.85H5.693zm-1.412.013v.854h1.115v-.854H4.28zm-1.41.016v.856h1.116v-.857H2.87zm4.247 1.052v.853H8.24v-.853H7.117zm2.58.01h1.108v.834H9.697v-.834zm-5.418.02v.853h1.113v-.852H4.28zm-1.415.02v.864h1.117v-.863H2.865zm4.254 1.042v.85h1.118v-.85h-1.12zm2.575.01h1.108v.835H9.695v-.837zm-4.002 0v.853h1.12v-.852h-1.12zm-1.408.02v.862H5.39v-.863H4.286zm18.387.643l1.072.098v1.022l-1.072-.12v-1zm-18.39.457v.856h1.11v-.856h-1.11zm1.417 1.067v.85h1.118v-.85h-1.12zm2.864.005h1.1v.842h-1.1v-.842zm-4.285.035v.855h1.113v-.855H4.28zm10 .05h1.1v.884c-.185-.008-.913-.04-1.1-.05v-.835zm2.83.108c.28.02.55.037.824.055.09.006.18.01.273.017v.895l-1.096-.082v-.885zm-11.417.893v.852h1.12v-.85h-1.12zm-1.707.063l-1.12.06v.884l1.12-.065v-.88zm4.557 1.004v.856h1.12v-.856h-1.12zm-1.422.002v.853h1.12v-.854H7.12zm4.28.013h1.112v.834H11.4v-.834zm-5.707.01v.85h1.12v-.85h-1.12zm-.3.013l-1.114.047v.877c.375-.017.745-.032 1.113-.05v-.874zm-1.41.06l-1.118.067v.887l1.12-.074v-.88zm10.232.09v.883l1.12.087c.01-.028.02-.038.02-.047v-.52c0-.317 0-.318-.326-.347-.033-.003-.064-.01-.096-.012l-.72-.045zm5.637.557v.949l1.105.17v-.963l-1.105-.157zm1.392.2l-.002.27c0 .083 0 .164.002.245 0 .112-.025.244-.006.344.007.033.018.063.037.086.07.086.274.074.422.1.218.04.436.078.658.115v-.985l-1.11-.176zm-12.697.146v.852h1.115v-.853H8.547zm-2.848.024v.856h1.12v-.856H5.7zm16.954.055v.99l1.094.212V24.65c-.37-.065-.727-.128-1.094-.19zm-8.435.126v.887l1.124.1v-.895c-.382-.03-.752-.062-1.125-.092zm5.63.64v.946l1.11.19V25.4c-.37-.06-.735-.115-1.11-.175zm-11.305.24v.97h1.12v-.97h-1.12zm1.42.032v.973h1.117V25.5H9.965zm1.406.02c0 .318-.003.612.005.906 0 .032.068.084.11.088.164.018.332.02.5.03l.525.022v-.992c-.386-.02-.755-.035-1.14-.054zm1.433.076v.996l1.13.088v-.657c0-.335-.002-.336-.355-.368-.255-.023-.51-.04-.775-.058zm2.832.24v1.018l1.117.136v-1.03l-1.117-.124zM17.06 26v1.033c.377.056.74.11 1.114.164V26.15c-.377-.053-.742-.1-1.113-.15zm2.782.408c0 .357-.002.68.002 1 0 .03.036.08.064.084.346.07.696.136 1.053.203v-1.09c-.37-.065-.73-.13-1.118-.197zm1.4.258c0 .35-.002.68.004 1.006 0 .034.037.092.067.098.344.08.69.15 1.054.228 0-.358.002-.703-.006-1.05 0-.028-.06-.073-.102-.083-.215-.048-.432-.09-.647-.13l-.368-.07z"/></symbol><symbol id="icon-bookmark" viewBox="0 0 50 50"><path d="M5 5c-2.75 0-5 2.25-5 5v29c0 2.75 2.25 5 5 5h16c1.664 0 3 1.352 3 3 0 .31.145.602.387.79.246.19.562.257.863.18.262-.068.488-.236.625-.47.086-.152.13-.324.125-.5 0-1.648 1.336-3 3-3h16c2.75 0 5-2.25 5-5V10c0-2.75-2.25-5-5-5H29c-1.633 0-3.086.813-4 2.03C24.086 5.813 22.633 5 21 5zm0 2h16c1.668 0 3 1.332 3 3v33.125c-.848-.66-1.852-1.125-3-1.125H5c-1.668 0-3-1.332-3-3V10c0-1.668 1.332-3 3-3zm24 0h16c1.668 0 3 1.332 3 3v29c0 1.668-1.332 3-3 3H29c-1.148 0-2.152.465-3 1.125V10c0-1.668 1.332-3 3-3z"/></symbol><symbol id="icon-cancel" viewBox="0 0 50 50"><path style="line-height:normal;text-indent:0;text-align:start;text-decoration-line:none;text-decoration-style:solid;text-decoration-color:#000;text-transform:none;block-progression:tb;isolation:auto;mix-blend-mode:normal" d="M25 3C12.862 3 3 12.862 3 25s9.862 22 22 22 22-9.862 22-22S37.138 3 25 3zm0 2c11.058 0 20 8.942 20 20s-8.942 20-20 20S5 36.058 5 25 13.942 5 25 5zm-8.01 10.99a1 1 0 0 0-.697 1.717L23.586 25l-7.293 7.293a1 1 0 1 0 1.414 1.414L25 26.414l7.293 7.293a1 1 0 1 0 1.414-1.414L26.414 25l7.293-7.293a1 1 0 0 0-.727-1.717 1 1 0 0 0-.687.303L25 23.586l-7.293-7.293a1 1 0 0 0-.717-.303z" font-weight="400" font-family="sans-serif" white-space="normal" overflow="visible"/></symbol><symbol id="icon-checked" viewBox="0 0 50 50"><path style="line-height:normal;text-indent:0;text-align:start;text-decoration-line:none;text-decoration-style:solid;text-decoration-color:#000;text-transform:none;block-progression:tb;isolation:auto;mix-blend-mode:normal" d="M25 2C12.317 2 2 12.317 2 25s10.317 23 23 23 23-10.317 23-23c0-4.56-1.34-8.81-3.637-12.39l-1.37 1.62C44.89 17.382 46 21.06 46 25c0 11.58-9.42 21-21 21S4 36.58 4 25 13.42 4 25 4c5.443 0 10.394 2.1 14.13 5.51l1.307-1.545C36.353 4.26 30.935 2 25 2zm18.236 5.754l-19.322 22.8-8.133-7.585-1.362 1.462 9.666 9.015 20.68-24.4-1.528-1.293z" font-weight="400" font-family="sans-serif" white-space="normal" overflow="visible"/></symbol><symbol id="icon-checkmark" viewBox="0 0 50 50"><path d="M42.875 8.625c-.03.008-.063.02-.094.03-.26.068-.487.236-.624.47L21.72 40.813 7.655 28.124c-.246-.313-.656-.45-1.043-.348-.386.102-.672.426-.73.82-.06.395.12.786.46.997l14.907 13.5c.22.19.512.277.8.234.29-.043.544-.207.7-.453l21.094-32.688c.23-.328.242-.76.03-1.1-.21-.34-.604-.52-1-.462z"/></symbol><symbol id="icon-contacts-filled" viewBox="0 0 50 50"><path d="M25.906 3.28c-9.34.212-10.398 7.036-8.406 14.908-.313.21-.95.96-.844 2.218.313 2.31 1.258 2.938 1.782 2.938.21 1.574.953 3.23 1.687 4.28.523.735.72 1.68.72 2.626 0 .84.01.305-.095 1.25-.105.305-.254.582-.438.844C20.527 33.152 21.767 37 26 37c4.336 0 5.5-4.152 5.625-4.656-.195-.258-.352-.54-.47-.844-.104-1.152-.124-.617-.124-1.563 0-.84.33-1.558.75-2.187.736-1.05 1.447-2.832 1.657-4.406.633 0 1.57-.63 1.782-2.938.104-1.258-.392-2.008-.814-2.218 1.05-2.938 3.028-12.055-3.687-13-.736-1.258-2.505-1.907-4.814-1.907zm7.375 30.47C32.44 35.984 30.22 39 26 39c-4.223 0-6.438-2.96-7.313-5.22C14.532 36.34 6.063 37.126 6.063 46h39.876c0-9.102-8.43-9.727-12.657-12.25z"/></symbol><symbol id="icon-delete" viewBox="0 0 50 50"><path d="M7.72 6.28L6.28 7.72 23.563 25 6.282 42.28l1.437 1.44L25 26.437l17.28 17.28 1.44-1.437L26.437 25l17.28-17.28-1.437-1.44L25 23.563z"/></symbol><symbol id="icon-google-play" viewBox="0 0 30 30"><path d="M7.623 3.21L18 13.587l2.678-2.678c-3.66-2.22-8.56-5.198-10.764-6.537l-1.476-.893c-.26-.16-.54-.245-.815-.266zM6.04 4.454c-.022.114-.04.23-.04.352V25.31c0 .085.017.165.03.247L16.585 15 6.04 4.453zm16.398 7.524L19.413 15l2.97 2.97c1.575-.953 2.665-1.616 2.786-1.69.535-.326.837-.82.828-1.358-.008-.53-.31-1.002-.824-1.293-.115-.067-1.19-.716-2.736-1.653zM18 16.414L7.654 26.76c.2-.035.402-.095.594-.21.266-.163 7.452-4.523 12.377-7.51L18 16.413z"/></symbol><symbol id="icon-home" viewBox="0 0 32 32"><path d="M16 2.594l-.72.687-13 13 1.44 1.44L5 16.437V28h9V18h4v10h9V16.437l1.28 1.282 1.44-1.44-13-13zm0 2.844l9 9V26h-5V16h-8v10H7V14.437z"/></symbol><symbol id="icon-menu" viewBox="0 0 30 30"><path style="line-height:normal;text-indent:0;text-align:start;text-decoration-line:none;text-decoration-style:solid;text-decoration-color:#000;text-transform:none;block-progression:tb;isolation:auto;mix-blend-mode:normal" d="M3 7a1 1 0 1 0 0 2h24a1 1 0 1 0 0-2H3zm0 7a1 1 0 1 0 0 2h24a1 1 0 1 0 0-2H3zm0 7a1 1 0 1 0 0 2h24a1 1 0 1 0 0-2H3z" font-weight="400" font-family="sans-serif" white-space="normal" overflow="visible"/></symbol><symbol id="icon-palace" viewBox="0 0 30 30"><path d="M15 2l-4 4h8l-4-4zm-4 6v5H8v-2H6v1H4v-1H2v6l2 1v8h8v-3c0-1.657 1.343-3 3-3s3 1.343 3 3v3h8v-8l2-1v-6h-2v1h-2v-1h-2v2h-3V8h-8zM8 20c.552 0 1 .448 1 1v2H7v-2c0-.552.448-1 1-1zm14 0c.552 0 1 .448 1 1v2h-2v-2c0-.552.448-1 1-1z"/></symbol><symbol id="icon-rating" viewBox="0 0 30 30"><path d="M24 4H6c-1.105 0-2 .895-2 2v18c0 1.105.895 2 2 2h18c1.105 0 2-.895 2-2V6c0-1.105-.895-2-2-2zm-1.195 8.942L18.51 16.14l1.596 5.11c.137.44-.362.802-.738.536L15 18.69l-4.368 3.096c-.376.266-.875-.096-.738-.536l1.596-5.11-4.295-3.198c-.37-.275-.18-.862.282-.867l5.354-.062 1.714-5.073c.147-.436.765-.436.912 0l1.713 5.073 5.353.062c.46.005.652.592.282.867z"/></symbol><symbol id="icon-remove" viewBox="0 0 24 24"><path style="line-height:normal;text-indent:0;text-align:start;text-decoration-line:none;text-decoration-style:solid;text-decoration-color:#000;text-transform:none;block-progression:tb;isolation:auto;mix-blend-mode:normal" d="M10.807 2c-.517 0-1.01.204-1.377.57L9 3H4a1 1 0 1 0 0 2h16a1 1 0 1 0 0-2h-5l-.43-.43c-.365-.366-.86-.57-1.377-.57h-2.386zM4.365 7l1.528 13.264c.132.99.984 1.736 1.982 1.736h8.248c.998 0 1.85-.745 1.984-1.744L19.635 7H4.365z" font-weight="400" font-family="sans-serif" white-space="normal" overflow="visible"/></symbol><symbol id="icon-search" viewBox="0 0 30 30"><path style="line-height:normal;text-indent:0;text-align:start;text-decoration-line:none;text-decoration-style:solid;text-decoration-color:#000;text-transform:none;block-progression:tb;isolation:auto;mix-blend-mode:normal" d="M13 3C7.49 3 3 7.49 3 13s4.49 10 10 10c2.397 0 4.597-.85 6.322-2.264l5.97 5.97a1 1 0 1 0 1.415-1.413l-5.97-5.97C22.148 17.596 23 15.396 23 13c0-5.51-4.49-10-10-10zm0 2c4.43 0 8 3.57 8 8s-3.57 8-8 8-8-3.57-8-8 3.57-8 8-8z" font-weight="400" font-family="sans-serif" white-space="normal" overflow="visible"/></symbol><symbol id="icon-settings" viewBox="0 0 30 30"><path d="M15 2c-.552 0-1 .448-1 1v.172c0 .478-.337.904-.81.98-.228.037-.454.08-.678.13-.464.107-.934-.155-1.116-.595l-.066-.156c-.21-.51-.796-.752-1.307-.54-.51.21-.753.796-.54 1.307l.066.16c.183.44.036.96-.37 1.213-.196.122-.388.25-.575.383-.388.277-.924.214-1.26-.123l-.122-.12c-.39-.392-1.024-.392-1.414 0-.39.39-.39 1.023 0 1.413l.12.12c.337.338.4.873.123 1.262-.133.187-.26.38-.383.575-.252.406-.774.554-1.215.37l-.158-.066c-.51-.21-1.097.03-1.31.54-.21.51.032 1.096.542 1.308l.156.064c.44.182.703.652.597 1.116-.05.224-.096.45-.133.68-.075.47-.5.808-.978.808H3c-.552 0-1 .448-1 1s.448 1 1 1h.172c.478 0 .904.337.98.81.037.228.08.454.13.678.107.464-.155.934-.595 1.116l-.156.066c-.51.21-.752.796-.54 1.307.21.51.796.753 1.307.54l.16-.066c.44-.182.962-.035 1.215.37.122.196.25.388.383.576.277.388.214.925-.123 1.262l-.123.12c-.392.392-.392 1.025 0 1.415.39.39 1.023.39 1.413 0l.123-.12c.337-.338.87-.403 1.26-.126.187.134.38.263.576.385.405.252.554.774.37 1.215l-.066.158c-.21.51.03 1.097.54 1.31.51.21 1.096-.032 1.308-.542l.064-.157c.182-.44.652-.703 1.116-.597.224.05.45.095.68.132.468.073.806.498.806.976V27c0 .552.448 1 1 1s1-.448 1-1v-.172c0-.478.337-.904.81-.98.228-.037.454-.08.678-.13.464-.107.934.155 1.116.595l.066.156c.21.51.796.752 1.307.54.51-.21.753-.796.54-1.307l-.066-.16c-.182-.44-.035-.962.37-1.215.196-.122.388-.25.576-.383.388-.277.925-.214 1.262.123l.12.123c.392.392 1.025.392 1.415 0 .39-.39.39-1.023 0-1.413l-.12-.123c-.338-.337-.403-.87-.126-1.26.134-.187.263-.38.385-.576.252-.405.774-.554 1.215-.37l.158.066c.51.21 1.097-.03 1.31-.54.21-.51-.032-1.096-.542-1.308l-.157-.064c-.44-.182-.703-.652-.597-1.116.05-.224.095-.45.132-.68.073-.468.498-.806.976-.806H27c.552 0 1-.448 1-1s-.448-1-1-1h-.172c-.478 0-.904-.337-.98-.81-.037-.228-.08-.454-.13-.678-.107-.464.155-.934.595-1.116l.156-.066c.51-.21.752-.796.54-1.307-.21-.51-.796-.753-1.307-.54l-.16.066c-.44.182-.962.035-1.215-.37-.122-.196-.25-.388-.383-.576-.277-.388-.214-.925.123-1.262l.123-.12c.392-.392.392-1.025 0-1.415-.39-.39-1.023-.39-1.413 0l-.12.123c-.338.337-.874.402-1.262.125-.188-.134-.38-.263-.577-.385-.405-.252-.552-.774-.37-1.215l.068-.158c.21-.51-.03-1.097-.54-1.31-.51-.21-1.096.032-1.308.542l-.066.156c-.182.44-.652.703-1.116.597-.224-.05-.45-.096-.68-.133-.47-.075-.806-.5-.806-.978V3c0-.552-.448-1-1-1zm0 5c4.08 0 7.44 3.055 7.932 7H16.73A2 2 0 0 0 15 13a2 2 0 0 0-.002 0l-3.102-5.375C12.85 7.223 13.9 7 15 7zm-4.83 1.633L13.27 14a2 2 0 0 0-.27 1 2 2 0 0 0 .27.996l-3.102 5.37C8.246 19.903 7 17.6 7 15c0-2.6 1.247-4.906 3.17-6.367zM16.73 16h6.202c-.493 3.945-3.853 7-7.932 7-1.1 0-2.15-.223-3.104-.625L14.998 17A2 2 0 0 0 15 17a2 2 0 0 0 1.73-1z"/></symbol><symbol id="icon-synchronize-filled" viewBox="0 0 50 50"><path d="M25 5C14.352 5 5.633 13.38 5.055 23.89c-.047.72.293 1.407.894 1.805.6.395 1.37.438 2.01.11.642-.328 1.06-.977 1.087-1.696C9.512 15.675 16.44 9 25 9c4.586 0 8.7 1.926 11.61 5H34c-.723-.012-1.39.367-1.754.992-.367.62-.367 1.395 0 2.016.363.625 1.03 1.004 1.754.992h6.262c.226.04.457.04.687 0H44V8c.008-.54-.203-1.06-.586-1.44-.383-.384-.902-.595-1.445-.587-1.103.015-1.986.922-1.97 2.027v3.777C36.332 7.62 30.965 5 25 5zm18.03 18.973c-1.104-.047-2.034.812-2.077 1.918C40.488 34.325 33.56 41 25 41c-4.586 0-8.695-1.926-11.61-5H16c.723.012 1.39-.367 1.754-.992.367-.62.367-1.395 0-2.016-.363-.625-1.03-1.004-1.754-.992H9.72c-.212-.03-.423-.03-.634 0H6v10c-.012.723.367 1.39.992 1.754.62.367 1.395.367 2.016 0 .625-.363 1.004-1.03.992-1.754v-3.777C13.668 42.38 19.035 45 25 45c10.648 0 19.367-8.38 19.945-18.89.04-.54-.144-1.07-.504-1.473-.362-.403-.87-.64-1.41-.664z"/></symbol><symbol id="icon-synchronize" viewBox="0 0 30 30"><path style="line-height:normal;text-indent:0;text-align:start;text-decoration-line:none;text-decoration-style:solid;text-decoration-color:#000;text-transform:none;block-progression:tb;isolation:auto;mix-blend-mode:normal" d="M15 3C8.913 3 3.88 7.553 3.113 13.44a1 1 0 1 0 1.983.257C5.736 8.79 9.91 5 15 5c2.767 0 5.25 1.13 7.06 2.94L20 10l6 1-1-6-1.53 1.53C21.3 4.357 18.31 3 15 3zm10.912 12.418a1 1 0 0 0-1.008.885C24.264 21.21 20.09 25 15 25c-3.022 0-5.7-1.35-7.535-3.465L9 20l-6-1 1 6 2.05-2.05C8.244 25.424 11.435 27 15 27c6.087 0 11.12-4.553 11.887-10.44a1 1 0 0 0-.975-1.142z" font-weight="400" font-family="sans-serif" white-space="normal" overflow="visible"/></symbol><symbol id="icon-unavailable" viewBox="0 0 30 30"><path style="line-height:normal;text-indent:0;text-align:start;text-decoration-line:none;text-decoration-style:solid;text-decoration-color:#000;text-transform:none;block-progression:tb;isolation:auto;mix-blend-mode:normal" d="M15 3c-3.217 0-6.136 1.28-8.293 3.35a1 1 0 0 0-.36.357C4.28 8.864 3 11.784 3 15c0 6.616 5.384 12 12 12 3.21 0 6.123-1.275 8.28-3.336a1 1 0 0 0 .382-.383C25.724 21.126 27 18.21 27 15c0-6.616-5.384-12-12-12zm0 2c5.535 0 10 4.465 10 10 0 2.406-.845 4.61-2.254 6.332L8.668 7.254C10.39 5.844 12.594 5 15 5zM7.254 8.668l14.078 14.078C19.61 24.156 17.406 25 15 25 9.465 25 5 20.535 5 15c0-2.406.845-4.61 2.254-6.332z" font-weight="400" font-family="sans-serif" white-space="normal" overflow="visible"/></symbol></defs>
    <g>
        <use xlink:href="#icon-about" width="24" height="24" x="3" y="3"/><use xlink:href="#icon-battle-net" width="24" height="24" x="33" y="3"/>
        <use xlink:href="#icon-blockchain" width="24" height="24" x="63" y="3"/>
        <use xlink:href="#icon-bookmark" width="24" height="24" x="93" y="3"/><use xlink:href="#icon-cancel" width="24" height="24" x="123" y="3"/>
        <use xlink:href="#icon-checked" width="24" height="24" x="3" y="33"/>
        <use xlink:href="#icon-checkmark" width="24" height="24" x="33" y="33"/>
        <use xlink:href="#icon-contacts-filled" width="24" height="24" x="63" y="33"/>
        <use xlink:href="#icon-delete" width="24" height="24" x="93" y="33"/>
        <use xlink:href="#icon-google-play" width="24" height="24" x="123" y="33"/>
        <use xlink:href="#icon-home" width="24" height="24" x="3" y="63"/>
        <use xlink:href="#icon-menu" width="24" height="24" x="33" y="63"/>
        <use xlink:href="#icon-palace" width="24" height="24" x="63" y="63"/>
        <use xlink:href="#icon-rating" width="24" height="24" x="93" y="63"/>
        <use xlink:href="#icon-remove" width="24" height="24" x="123" y="63"/>
        <use xlink:href="#icon-search" width="24" height="24" x="3" y="93"/>
        <use xlink:href="#icon-settings" width="24" height="24" x="33" y="93"/>
        <use xlink:href="#icon-synchronize-filled" width="24" height="24" x="63" y="93"/>
        <use xlink:href="#icon-synchronize" width="24" height="24" x="93" y="93"/>
        <use xlink:href="#icon-unavailable" width="24" height="24" x="123" y="93"/>
    </g>
</svg>